Stairs_down
version=1
nRows=21
nColumns=18
inDegrees=yes

Units are S.I. units (second, meters, Newtons, ...)
Angles are in degrees.

endheader
time	pelvis_tilt	pelvis_list	pelvis_rotation	pelvis_tx	pelvis_ty	pelvis_tz	hip_flexion_r	hip_adduction_r	hip_rotation_r	knee_angle_r	ankle_angle_r	hip_flexion_l	hip_adduction_l	hip_rotation_l	knee_angle_l	ankle_angle_l	lumbar_extension
0.683	-1.89040494	1.88712599	14.10129257	0.21690019	1.50654718	0.03133093	20.56266294	-2.57505892	0	-10.97927647	-36.19671267	13.28960489	5.53559187	0	-46.92979211	35.23356099	-5.00000214
0.692	-1.84105484	1.91077055	14.20028536	0.22061456	1.50282857	0.031282	20.12293106	-2.39583346	0	-10.49114732	-36.3121481	13.73070449	5.46714583	0	-48.52052873	35.70225941	-5.00000214
0.7	-1.78111262	1.9366436	14.31038021	0.22446809	1.49907105	0.03131439	19.72624162	-2.21075177	0	-10.17695032	-36.45449681	14.11863849	5.38635795	0	-50.11265704	36.12158419	-5.00000214
0.708	-1.75180142	1.9683407	14.3547373	0.22819782	1.4952805	0.03149201	19.43224964	-2.02028182	0	-9.99321415	-36.64310213	14.51862494	5.31880213	0	-51.64280878	36.60933063	-5.00000214
0.717	-1.72613445	2.01057507	14.41821015	0.23185279	1.49144875	0.03164863	19.09205897	-1.84355728	0	-9.75915863	-36.75246454	14.9529739	5.27353015	0	-53.19904575	37.05994226	-5.00000214
0.725	-1.67998638	2.06262135	14.53547056	0.23567557	1.48762943	0.03164762	18.70490009	-1.6926263	0	-9.5592572	-36.85373017	15.33942739	5.22371904	0	-54.72475961	37.47932719	-5.00000214
0.733	-1.61944661	2.09606286	14.58167238	0.23969528	1.4837915	0.03180541	18.35307288	-1.48671478	0	-9.49042991	-36.92018466	15.62932195	5.10860117	0	-56.16416273	37.826294	-5.00000214
0.742	-1.57291929	2.12222769	14.66667846	0.24374029	1.47988327	0.03198479	17.95745248	-1.28078243	0	-9.36558689	-36.95167211	15.95645343	4.97035579	0	-57.6505695	38.00968814	-5.00000214
0.75	-1.54181511	2.13064556	14.73668968	0.24787948	1.47588058	0.03225925	17.52432532	-1.04284453	0	-9.14433975	-37.04875821	16.35096831	4.81373266	0	-59.21861689	38.20541199	-5.00000214
0.758	-1.48788049	2.16415988	14.78794969	0.25208562	1.47207827	0.03257933	17.05643497	-0.81198564	0	-8.9617091	-37.10424276	16.66318424	4.68148864	0	-60.65924119	38.45635771	-5.00000214
0.767	-1.4361099	2.19317445	14.86708798	0.25624449	1.46830582	0.03294109	16.59721975	-0.58621101	0	-8.81672	-37.1121329	16.96824815	4.54153522	0	-62.07694826	38.69605033	-5.00000214
0.775	-1.39398868	2.23168246	14.90313077	0.26056222	1.46433901	0.03323477	16.11318376	-0.36592685	0	-8.69570996	-36.9150298	17.26175079	4.42925979	0	-63.46552037	38.9437346	-5.00000214
0.783	-1.33089612	2.277106	14.87205478	0.26525495	1.46036107	0.03351367	15.56343135	-0.15864939	0	-8.61471272	-36.72558803	17.45466399	4.31762708	0	-64.80586815	39.02991964	-5.00000214
0.792	-1.24783693	2.29408008	14.87552653	0.2699896	1.45636402	0.03395557	14.960448	0.09138692	0	-8.53576444	-36.54292145	17.66210207	4.13177638	0	-66.21352696	38.83950611	-5.00000214
0.8	-1.15755164	2.32476062	14.93016557	0.27484643	1.45247636	0.03431484	14.29735679	0.34248861	0	-8.3883026	-36.19448397	17.86973811	3.96606223	0	-67.6205575	38.68863586	-5.00000214
0.808	-1.03282375	2.33619085	14.94138115	0.27988442	1.44858115	0.03495018	13.53737193	0.6675234	0	-8.08039475	-35.2841652	18.05389318	3.7565231	0	-69.04517315	38.65069405	-5.00000214
0.817	-0.88074375	2.39694269	14.81843208	0.28490059	1.44470037	0.0355876	12.86309609	0.93165571	0	-8.13837043	-32.81192417	18.18704513	3.63854895	0	-70.44679819	38.54406746	-5.00000214
0.825	-0.74552076	2.42678764	14.75315595	0.28985891	1.4407643	0.03623333	12.2047169	1.16240172	0	-8.14843768	-30.34050969	18.41101406	3.46206912	0	-71.96142124	38.33346007	-5.00000214
0.833	-0.6346277	2.44650481	14.68975167	0.29514883	1.43674351	0.03685749	11.63239144	1.36167204	0	-8.37968292	-27.61762772	18.66014579	3.26278508	0	-73.50590103	37.98012415	-5.00000214
0.842	-0.50941234	2.43689086	14.62276481	0.30051583	1.43259033	0.03761104	11.11096242	1.6031292	0	-8.73547744	-25.00926199	18.97329733	3.00832407	0	-75.16702759	37.48271603	-5.00000214
0.85	-0.38191335	2.43275841	14.57782118	0.30563116	1.42835174	0.03837251	10.63897625	1.8537744	0	-9.17167502	-22.46437106	19.39391917	2.75410115	0	-76.95260631	36.75243717	-5.00000214
